<svg width="24" height="24" viewBox="0 0 24 24" fill="darkgrey" xmlns="http://www.w3.org/2000/svg">
<path d="M6.57125 21.875L3.62125 21.875C3.06896 21.875 2.62125 21.4273 2.62125 20.875V7.83441C2.62125 7.06152 3.06658 6.3578 3.76507 6.02694L11.1463 2.53056C11.6882 2.27386 12.3167 2.27386 12.8587 2.53056L20.2399 6.02694C20.9384 6.3578 21.3837 7.06152 21.3837 7.83441V20.875C21.3837 21.4273 20.936 21.875 20.3837 21.875L17.4337 21.875" stroke="#121219" stroke-width="1.5"/>
<path d="M6.57124 21.875V13.9875C6.57124 13.4353 7.01896 12.9875 7.57124 12.9875H16.4337C16.986 12.9875 17.4337 13.4353 17.4337 13.9875V21.875" stroke="#121219" stroke-width="1.5" stroke-linecap="round"/>
<path d="M7.06497 18.9125L16.94 18.9125" stroke="#121219" stroke-width="1.5" stroke-linecap="round"/>
<path d="M7.06497 15.95L16.94 15.95" stroke="#121219" stroke-width="1.5" stroke-linecap="round"/>
</svg>
