<svg width="20" height="23" viewBox="0 0 20 23" fill="darkgrey" xmlns="http://www.w3.org/2000/svg">
<path fill-rule="evenodd" clip-rule="evenodd" d="M11.0557 1.29307C10.711 0.948024 10.253 0.956268 9.95234 1.07155C9.65385 1.18601 9.33042 1.47026 9.27277 1.91841C9.20413 2.452 9.00784 3.3825 8.44992 4.63009C8.26276 5.04861 8.07733 5.50077 7.88724 5.9643L7.88724 5.96431C7.52703 6.84266 7.15008 7.76182 6.71293 8.57017C6.38486 9.17683 6.06692 9.63027 5.76691 9.89881C5.58206 10.0643 5.44409 10.1277 5.33444 10.1423C5.33057 10.0857 5.33044 10.0068 5.33965 9.90129C5.37577 9.48765 5.52516 8.94489 5.70172 8.36169C5.72512 8.28442 5.74952 8.20494 5.77431 8.12424L5.77447 8.12371C5.91718 7.65903 6.07231 7.1539 6.11769 6.79828C6.13209 6.68544 6.14273 6.54066 6.12279 6.39124C6.10445 6.25381 6.04424 5.99277 5.80888 5.79325C5.54709 5.57134 5.24444 5.56875 5.05159 5.60634C4.87086 5.64157 4.71317 5.72207 4.59451 5.79336C4.30183 5.96919 4.03553 6.24646 3.87273 6.42913C3.78356 6.52918 3.70845 6.62047 3.65545 6.68693C3.63368 6.71423 3.61539 6.73765 3.60111 6.75617C0.40809 9.9879 0.155316 15.0326 2.83988 18.5531L2.87028 18.5929L2.90571 18.6284L3.74178 19.4652C5.51466 21.2396 7.84449 22.1197 10.1673 22.1049V22.105L10.1766 22.1048C12.424 22.0627 14.6609 21.1828 16.3762 19.4661L17.1982 18.6434L17.233 18.6085L17.2629 18.5695C19.9712 15.0353 19.71 9.95473 16.4779 6.7199L11.0557 1.29307ZM4.00311 17.6045C1.96111 14.8901 1.99966 11.1056 4.11823 8.43134C3.99475 8.87292 3.88241 9.34626 3.84534 9.7708C3.8196 10.0656 3.82243 10.4082 3.92946 10.7264C4.04694 11.0757 4.29764 11.4058 4.726 11.5605L4.75496 11.571L4.78467 11.579C5.57745 11.7937 6.25866 11.4718 6.76733 11.0165C7.26203 10.5737 7.67851 9.93801 8.03235 9.28371C8.50468 8.41031 8.945 7.3394 9.32438 6.41675L9.32441 6.41667C9.50404 5.97978 9.67001 5.57614 9.81924 5.24244C10.2212 4.34366 10.4614 3.57619 10.6042 2.96335L15.4168 7.7801C18.0986 10.4641 18.3272 14.6754 16.1014 17.6188L15.3151 18.4058C14.6825 19.0389 13.9655 19.5354 13.2003 19.8952L13.2131 19.8813L13.2412 19.8416C14.405 18.197 14.2982 15.843 12.8995 14.3278L10.609 11.8464L10.0579 11.2493L9.5068 11.8464L7.21639 14.3277C5.81965 15.8408 5.71143 18.1896 6.86921 19.8339L6.89773 19.8744L6.91483 19.8929C6.15065 19.5332 5.43463 19.0372 4.80289 18.405L4.00311 17.6045ZM8.31859 15.3451L10.0579 13.4608L11.7973 15.3452C12.6921 16.3145 12.7808 17.8566 12.0429 18.9376L11.7576 19.2467C11.2848 19.7589 10.683 20.0102 10.0886 20.0236C9.47425 20.0265 8.84779 19.7755 8.35933 19.2463L8.0692 18.932C7.33531 17.8509 7.4254 16.3127 8.31859 15.3451Z" fill="darkgrey"/>
<path d="M9.95234 1.07155L10.1314 1.5384L10.1314 1.5384L9.95234 1.07155ZM11.0557 1.29307L10.702 1.64647L10.702 1.64647L11.0557 1.29307ZM9.27277 1.91841L8.77685 1.85461L8.77685 1.85461L9.27277 1.91841ZM8.44992 4.63009L8.90636 4.83421L8.90636 4.83421L8.44992 4.63009ZM7.88724 5.9643L7.42463 5.77459L7.41823 5.79019L7.4129 5.80619L7.88724 5.9643ZM7.88724 5.96431L8.34985 6.15403L8.35624 6.13842L8.36158 6.12243L7.88724 5.96431ZM6.71293 8.57017L7.15274 8.80802L7.15274 8.80802L6.71293 8.57017ZM5.76691 9.89881L6.10038 10.2714L6.10038 10.2714L5.76691 9.89881ZM5.33444 10.1423L4.83561 10.1764L4.87197 10.7084L5.40053 10.6379L5.33444 10.1423ZM5.33965 9.90129L4.84155 9.85779L4.84155 9.85779L5.33965 9.90129ZM5.70172 8.36169L6.18027 8.50657L6.18027 8.50657L5.70172 8.36169ZM5.77431 8.12424L5.2965 7.97693L5.29634 7.97746L5.77431 8.12424ZM5.77447 8.12371L6.25228 8.27102L6.25244 8.27049L5.77447 8.12371ZM6.11769 6.79828L5.62171 6.73499L5.62171 6.73499L6.11769 6.79828ZM6.12279 6.39124L6.61839 6.3251L6.61839 6.3251L6.12279 6.39124ZM5.80888 5.79325L5.48556 6.17466L5.48556 6.17466L5.80888 5.79325ZM5.05159 5.60634L5.14726 6.09711L5.14726 6.09711L5.05159 5.60634ZM4.59451 5.79336L4.33702 5.36476L4.33702 5.36476L4.59451 5.79336ZM3.87273 6.42913L4.246 6.7618L4.246 6.7618L3.87273 6.42913ZM3.65545 6.68693L4.04636 6.99868L4.04636 6.99868L3.65545 6.68693ZM3.60111 6.75617L3.95678 7.10758L3.97829 7.08582L3.99698 7.06159L3.60111 6.75617ZM2.83988 18.5531L3.23747 18.2499L3.23747 18.2499L2.83988 18.5531ZM2.87028 18.5929L2.47269 18.8961L2.49295 18.9227L2.51657 18.9463L2.87028 18.5929ZM2.90571 18.6284L2.552 18.9818L2.55201 18.9818L2.90571 18.6284ZM3.74178 19.4652L4.09548 19.1118L4.09548 19.1118L3.74178 19.4652ZM10.1673 22.1049H10.6673V21.6017L10.1641 21.6049L10.1673 22.1049ZM10.1673 22.105H9.66731V22.6144L10.1767 22.6049L10.1673 22.105ZM10.1766 22.1048L10.1859 22.6047L10.1859 22.6047L10.1766 22.1048ZM16.3762 19.4661L16.0225 19.1127L16.0225 19.1127L16.3762 19.4661ZM17.1982 18.6434L16.8445 18.29L16.8445 18.29L17.1982 18.6434ZM17.233 18.6085L17.5867 18.9619L17.6099 18.9387L17.6299 18.9127L17.233 18.6085ZM17.2629 18.5695L16.8661 18.2653L16.8661 18.2653L17.2629 18.5695ZM16.4779 6.7199L16.1242 7.0733L16.1242 7.0733L16.4779 6.7199ZM4.11823 8.43134L4.59976 8.56599L3.72631 8.12085L4.11823 8.43134ZM4.00311 17.6045L3.60355 17.9051L3.62463 17.9331L3.6494 17.9579L4.00311 17.6045ZM3.84534 9.7708L3.34724 9.72731L3.34724 9.72731L3.84534 9.7708ZM3.92946 10.7264L3.45555 10.8858L3.45555 10.8858L3.92946 10.7264ZM4.726 11.5605L4.89584 11.0903L4.89582 11.0902L4.726 11.5605ZM4.75496 11.571L4.58511 12.0413L4.60443 12.0482L4.62426 12.0536L4.75496 11.571ZM4.78467 11.579L4.91538 11.0964L4.91537 11.0964L4.78467 11.579ZM6.76733 11.0165L6.43386 10.6439L6.43386 10.6439L6.76733 11.0165ZM8.03235 9.28371L7.59255 9.04586L7.59255 9.04586L8.03235 9.28371ZM9.32438 6.41675L9.78681 6.60689L9.78742 6.6054L9.32438 6.41675ZM9.32441 6.41667L8.86197 6.22653L8.86136 6.22802L9.32441 6.41667ZM9.81924 5.24244L10.2757 5.44656L10.2757 5.44656L9.81924 5.24244ZM10.6042 2.96335L10.9579 2.60995L10.3216 1.97309L10.1172 2.84986L10.6042 2.96335ZM15.4168 7.7801L15.7705 7.4267L15.7705 7.4267L15.4168 7.7801ZM16.1014 17.6188L16.4551 17.9722L16.4795 17.9479L16.5002 17.9204L16.1014 17.6188ZM15.3151 18.4058L14.9614 18.0524L14.9614 18.0524L15.3151 18.4058ZM13.2003 19.8952L12.8329 19.5561L13.4131 20.3477L13.2003 19.8952ZM13.2131 19.8813L13.5805 20.2205L13.6025 20.1966L13.6213 20.1701L13.2131 19.8813ZM13.2412 19.8416L13.6494 20.1304L13.6494 20.1304L13.2412 19.8416ZM12.8995 14.3278L12.5321 14.6669L12.5321 14.6669L12.8995 14.3278ZM10.609 11.8464L10.9764 11.5072L10.9764 11.5072L10.609 11.8464ZM10.0579 11.2493L10.4253 10.9102L10.0579 10.5122L9.6905 10.9102L10.0579 11.2493ZM9.5068 11.8464L9.8742 12.1855L9.8742 12.1855L9.5068 11.8464ZM7.21639 14.3277L6.84898 13.9885L6.84898 13.9885L7.21639 14.3277ZM6.86921 19.8339L7.27803 19.546L7.27803 19.546L6.86921 19.8339ZM6.89773 19.8744L6.48891 20.1622L6.50793 20.1893L6.53035 20.2135L6.89773 19.8744ZM6.91483 19.8929L6.70189 20.3453L7.28221 19.5537L6.91483 19.8929ZM4.80289 18.405L5.1566 18.0516L5.1566 18.0516L4.80289 18.405ZM10.0579 13.4608L10.4253 13.1217L10.0579 12.7237L9.6905 13.1217L10.0579 13.4608ZM8.31859 15.3451L8.68599 15.6842L8.68599 15.6842L8.31859 15.3451ZM11.7973 15.3452L11.4299 15.6843L11.4299 15.6843L11.7973 15.3452ZM12.0429 18.9376L12.4103 19.2768L12.4351 19.2498L12.4558 19.2195L12.0429 18.9376ZM11.7576 19.2467L11.3902 18.9075L11.3902 18.9075L11.7576 19.2467ZM10.0886 20.0236L10.0909 20.5237L10.0999 20.5235L10.0886 20.0236ZM8.35933 19.2463L7.99193 19.5854L7.99193 19.5854L8.35933 19.2463ZM8.0692 18.932L7.65552 19.2128L7.67649 19.2437L7.7018 19.2711L8.0692 18.932ZM10.1314 1.5384C10.3056 1.47156 10.5361 1.48038 10.702 1.64647L11.4095 0.939665C10.8859 0.415671 10.2003 0.440971 9.77331 0.604697L10.1314 1.5384ZM9.76868 1.9822C9.7973 1.75974 9.9596 1.60427 10.1314 1.5384L9.77331 0.604697C9.34811 0.767752 8.86353 1.18077 8.77685 1.85461L9.76868 1.9822ZM8.90636 4.83421C9.4846 3.54117 9.69393 2.56331 9.76868 1.9822L8.77685 1.85461C8.71433 2.34069 8.53108 3.22383 7.99348 4.42598L8.90636 4.83421ZM8.34985 6.15402C8.5406 5.68889 8.72299 5.24426 8.90636 4.83421L7.99348 4.42597C7.80254 4.85296 7.61407 5.31266 7.42463 5.77459L8.34985 6.15402ZM8.36158 6.12243L8.36158 6.12242L7.4129 5.80619L7.41289 5.8062L8.36158 6.12243ZM7.15274 8.80802C7.60488 7.97195 7.99181 7.02708 8.34985 6.15403L7.42463 5.7746C7.06224 6.65825 6.69528 7.5517 6.27312 8.33233L7.15274 8.80802ZM6.10038 10.2714C6.46538 9.94465 6.81619 9.43035 7.15274 8.80802L6.27312 8.33233C5.95353 8.92331 5.66845 9.31589 5.43344 9.52626L6.10038 10.2714ZM5.40053 10.6379C5.64828 10.6049 5.87635 10.4719 6.10038 10.2714L5.43344 9.52626C5.28777 9.65664 5.2399 9.65046 5.26835 9.64667L5.40053 10.6379ZM4.84155 9.85779C4.83047 9.98464 4.82969 10.0898 4.83561 10.1764L5.83328 10.1082C5.83146 10.0816 5.83041 10.029 5.83776 9.94478L4.84155 9.85779ZM5.22318 8.2168C5.04874 8.79296 4.88289 9.38434 4.84155 9.85779L5.83776 9.94478C5.86865 9.59096 6.00157 9.09681 6.18027 8.50657L5.22318 8.2168ZM5.29634 7.97746C5.27161 8.05798 5.24691 8.13842 5.22318 8.2168L6.18027 8.50657C6.20333 8.43042 6.22744 8.35191 6.25228 8.27102L5.29634 7.97746ZM5.29667 7.97639L5.2965 7.97693L6.25211 8.27155L6.25228 8.27102L5.29667 7.97639ZM5.62171 6.73499C5.58305 7.03793 5.44457 7.49478 5.2965 7.97692L6.25244 8.27049C6.38979 7.82327 6.56156 7.26986 6.61367 6.86157L5.62171 6.73499ZM5.62718 6.45738C5.63894 6.54545 5.63362 6.64167 5.62171 6.73499L6.61367 6.86157C6.63056 6.7292 6.64652 6.53587 6.61839 6.3251L5.62718 6.45738ZM5.48556 6.17466C5.58342 6.25761 5.61581 6.37219 5.62718 6.45738L6.61839 6.3251C6.59308 6.13544 6.50506 5.72793 6.13219 5.41185L5.48556 6.17466ZM5.14726 6.09711C5.25258 6.07657 5.38017 6.08532 5.48556 6.17466L6.13219 5.41185C5.71401 5.05736 5.23629 5.06093 4.95592 5.11558L5.14726 6.09711ZM4.85199 6.22197C4.94924 6.16355 5.04909 6.11624 5.14726 6.09711L4.95592 5.11558C4.69264 5.16691 4.47711 5.2806 4.33702 5.36476L4.85199 6.22197ZM4.246 6.7618C4.4038 6.58474 4.6282 6.35641 4.85199 6.22197L4.33702 5.36476C3.97546 5.58197 3.66726 5.90818 3.49946 6.09646L4.246 6.7618ZM4.04636 6.99868C4.09514 6.93751 4.16429 6.85348 4.246 6.7618L3.49946 6.09646C3.40283 6.20488 3.32175 6.30344 3.26453 6.37519L4.04636 6.99868ZM3.99698 7.06159C4.00977 7.04502 4.02641 7.02371 4.04636 6.99868L3.26453 6.37519C3.24096 6.40475 3.22101 6.43029 3.20523 6.45075L3.99698 7.06159ZM3.23747 18.2499C0.701969 14.9248 0.94127 10.1597 3.95678 7.10758L3.24543 6.40475C-0.12509 9.81614 -0.391338 15.1403 2.44229 18.8562L3.23747 18.2499ZM3.26787 18.2897L3.23747 18.2499L2.44229 18.8562L2.47269 18.8961L3.26787 18.2897ZM3.25942 18.275L3.22399 18.2395L2.51657 18.9463L2.552 18.9818L3.25942 18.275ZM4.09548 19.1118L3.25942 18.275L2.55201 18.9818L3.38807 19.8186L4.09548 19.1118ZM10.1641 21.6049C7.96964 21.6189 5.77002 20.7877 4.09548 19.1118L3.38807 19.8186C5.2593 21.6914 7.71934 22.6205 10.1705 22.6049L10.1641 21.6049ZM10.6673 22.105V22.1049H9.66731V22.105H10.6673ZM10.1672 21.6049L10.158 21.6051L10.1767 22.6049L10.1859 22.6047L10.1672 21.6049ZM16.0225 19.1127C14.4022 20.7343 12.2904 21.5652 10.1672 21.6049L10.1859 22.6047C12.5576 22.5603 14.9195 21.6314 16.7299 19.8195L16.0225 19.1127ZM16.8445 18.29L16.0225 19.1127L16.7299 19.8195L17.5519 18.9968L16.8445 18.29ZM16.8793 18.2551L16.8445 18.29L17.5519 18.9968L17.5867 18.9619L16.8793 18.2551ZM16.8661 18.2653L16.8361 18.3044L17.6299 18.9127L17.6598 18.8736L16.8661 18.2653ZM16.1242 7.0733C19.1767 10.1284 19.4239 14.9274 16.8661 18.2653L17.6598 18.8736C20.5185 15.1431 20.2433 9.78108 16.8316 6.36649L16.1242 7.0733ZM10.702 1.64647L16.1242 7.0733L16.8316 6.36649L11.4095 0.939664L10.702 1.64647ZM3.72631 8.12085C1.46619 10.9738 1.42517 15.0094 3.60355 17.9051L4.40267 17.3039C2.49706 14.7708 2.53313 11.2374 4.51015 8.74182L3.72631 8.12085ZM4.34345 9.8143C4.37638 9.43715 4.47845 8.9998 4.59976 8.56599L3.6367 8.29668C3.51105 8.74604 3.38844 9.25538 3.34724 9.72731L4.34345 9.8143ZM4.40338 10.5671C4.32814 10.3433 4.32024 10.08 4.34345 9.8143L3.34724 9.72731C3.31895 10.0512 3.31673 10.4731 3.45555 10.8858L4.40338 10.5671ZM4.89582 11.0902C4.63878 10.9974 4.48251 10.8023 4.40338 10.5671L3.45555 10.8858C3.61137 11.3491 3.95651 11.8143 4.55618 12.0308L4.89582 11.0902ZM4.9248 11.1007L4.89584 11.0903L4.55615 12.0308L4.58511 12.0413L4.9248 11.1007ZM4.91537 11.0964L4.88565 11.0884L4.62426 12.0536L4.65398 12.0616L4.91537 11.0964ZM6.43386 10.6439C5.99775 11.0343 5.48578 11.2509 4.91538 11.0964L4.65396 12.0616C5.66912 12.3366 6.51957 11.9093 7.10081 11.389L6.43386 10.6439ZM7.59255 9.04586C7.24738 9.68413 6.86373 10.2591 6.43386 10.6439L7.10081 11.389C7.66033 10.8882 8.10964 10.1919 8.47216 9.52155L7.59255 9.04586ZM8.86194 6.22661C8.48009 7.1553 8.04988 8.20018 7.59255 9.04586L8.47216 9.52155C8.95947 8.62045 9.40992 7.52351 9.78681 6.60689L8.86194 6.22661ZM8.86136 6.22802L8.86133 6.2281L9.78742 6.6054L9.78745 6.60532L8.86136 6.22802ZM9.3628 5.03833C9.20981 5.38043 9.04069 5.79186 8.86197 6.22653L9.78684 6.60681C9.96739 6.1677 10.1302 5.77184 10.2757 5.44656L9.3628 5.03833ZM10.1172 2.84986C9.98164 3.43169 9.75165 4.1688 9.3628 5.03833L10.2757 5.44656C10.6907 4.51852 10.9411 3.7207 11.0911 3.07684L10.1172 2.84986ZM15.7705 7.4267L10.9579 2.60995L10.2505 3.31675L15.0631 8.1335L15.7705 7.4267ZM16.5002 17.9204C18.8745 14.7807 18.631 10.2896 15.7705 7.4267L15.0631 8.1335C17.5661 10.6387 17.78 14.5701 15.7026 17.3173L16.5002 17.9204ZM15.6688 18.7592L16.4551 17.9722L15.7477 17.2654L14.9614 18.0524L15.6688 18.7592ZM13.4131 20.3477C14.2299 19.9635 14.9948 19.4338 15.6688 18.7592L14.9614 18.0524C14.3702 18.6441 13.7011 19.1072 12.9875 19.4427L13.4131 20.3477ZM12.8457 19.5422L12.8329 19.5561L13.5677 20.2344L13.5805 20.2205L12.8457 19.5422ZM12.8331 19.5528L12.805 19.5925L13.6213 20.1701L13.6494 20.1304L12.8331 19.5528ZM12.5321 14.6669C13.7662 16.0038 13.8644 18.0953 12.8331 19.5528L13.6494 20.1304C14.9455 18.2986 14.8303 15.6823 13.2669 13.9886L12.5321 14.6669ZM10.2416 12.1855L12.5321 14.6669L13.2669 13.9886L10.9764 11.5072L10.2416 12.1855ZM9.6905 11.5885L10.2416 12.1855L10.9764 11.5072L10.4253 10.9102L9.6905 11.5885ZM9.8742 12.1855L10.4253 11.5885L9.6905 10.9102L9.1394 11.5072L9.8742 12.1855ZM7.58379 14.6668L9.8742 12.1855L9.1394 11.5072L6.84898 13.9885L7.58379 14.6668ZM7.27803 19.546C6.25191 18.0887 6.35153 16.0017 7.58379 14.6668L6.84898 13.9885C5.28778 15.6798 5.17095 18.2905 6.46038 20.1217L7.27803 19.546ZM7.30656 19.5865L7.27803 19.546L6.46038 20.1217L6.48891 20.1622L7.30656 19.5865ZM7.28221 19.5537L7.26512 19.5352L6.53035 20.2135L6.54744 20.232L7.28221 19.5537ZM4.44919 18.7584C5.12231 19.4321 5.88612 19.9613 6.70189 20.3453L7.12777 19.4405C6.41519 19.1051 5.74694 18.6424 5.1566 18.0516L4.44919 18.7584ZM3.6494 17.9579L4.44919 18.7584L5.1566 18.0516L4.35681 17.2511L3.6494 17.9579ZM9.6905 13.1217L7.95119 15.0059L8.68599 15.6842L10.4253 13.8L9.6905 13.1217ZM12.1647 15.006L10.4253 13.1217L9.6905 13.8L11.4299 15.6843L12.1647 15.006ZM12.4558 19.2195C13.3212 17.952 13.2222 16.1516 12.1647 15.006L11.4299 15.6843C12.162 16.4774 12.2405 17.7613 11.6299 18.6557L12.4558 19.2195ZM12.125 19.5858L12.4103 19.2768L11.6755 18.5985L11.3902 18.9075L12.125 19.5858ZM10.0999 20.5235C10.8308 20.507 11.5608 20.197 12.125 19.5858L11.3902 18.9075C11.0088 19.3207 10.5353 19.5134 10.0773 19.5238L10.0999 20.5235ZM7.99193 19.5854C8.57498 20.2171 9.33532 20.5271 10.0909 20.5236L10.0863 19.5237C9.61318 19.5258 9.12059 19.3338 8.72673 18.9072L7.99193 19.5854ZM7.7018 19.2711L7.99193 19.5854L8.72673 18.9072L8.43661 18.5929L7.7018 19.2711ZM7.95119 15.0059C6.89555 16.1495 6.79511 17.9454 7.65552 19.2128L8.48288 18.6512C7.87552 17.7565 7.95526 16.4758 8.68599 15.6842L7.95119 15.0059Z" fill="darkgrey"/>
</svg>
