<svg width="24" height="24" viewBox="0 0 24 24" fill="darkgrey" xmlns="http://www.w3.org/2000/svg">
<path d="M3 5V19C3 20.1046 3.89543 21 5 21H19C20.1046 21 21 20.1046 21 19V5C21 3.89543 20.1046 3 19 3H5C3.89543 3 3 3.89543 3 5Z" stroke="#121219" stroke-width="1.5"/>
<path d="M9 18H15" stroke="#121219" stroke-width="1.5" stroke-linecap="round"/>
<path d="M9.643 10.7118L11.8529 9.10684C11.9406 9.04315 12.0594 9.04323 12.147 9.10704L14.3489 10.7107C14.5141 10.8311 14.7461 10.713 14.7461 10.5086V3.25C14.7461 3.11193 14.6342 3 14.4961 3H9.49609C9.35802 3 9.24609 3.11193 9.24609 3.25V10.5095C9.24609 10.7137 9.47774 10.8318 9.643 10.7118Z" stroke="#121219" stroke-width="1.5"/>
</svg>
