<svg width="17" height="17" viewBox="0 0 17 17" fill="none" xmlns="http://www.w3.org/2000/svg">
<path d="M14.4649 13.6463C14.9265 13.6463 15.3 13.2723 15.3 12.8104V4.18989C15.3001 4.08016 15.2785 3.97149 15.2366 3.87008C15.1947 3.76867 15.1332 3.67651 15.0557 3.59888C14.9781 3.52125 14.886 3.45967 14.7847 3.41765C14.6833 3.37563 14.5746 3.354 14.4649 3.354H2.53499C2.42527 3.35403 2.31662 3.37567 2.21527 3.41769C2.11391 3.45972 2.02183 3.52131 1.94428 3.59893C1.86673 3.67656 1.80524 3.7687 1.76332 3.8701C1.72139 3.9715 1.69986 4.08017 1.69995 4.18989V12.8104C1.69984 12.9202 1.72136 13.0288 1.76327 13.1302C1.80519 13.2317 1.86668 13.3238 1.94423 13.4014C2.02178 13.4791 2.11387 13.5407 2.21524 13.5827C2.31661 13.6247 2.42526 13.6463 2.53499 13.6463H14.4649ZM13.6297 11.9756H3.3702V5.02476H13.6297V11.9756Z" fill="white"/>
<path d="M7.06559 11.2026C6.908 11.2026 6.75636 11.1397 6.64382 11.0276L5.8115 10.1951L4.7983 11.0336C4.73797 11.0836 4.66836 11.1212 4.59346 11.1443C4.51856 11.1674 4.43984 11.1755 4.36181 11.1682C4.28377 11.1608 4.20796 11.1381 4.1387 11.1015C4.06943 11.0648 4.00809 11.0148 3.95816 10.9544C3.85735 10.8324 3.80907 10.6755 3.82393 10.518C3.83878 10.3605 3.91556 10.2153 4.03738 10.1144L5.46946 8.92966C5.58384 8.83482 5.72951 8.78613 5.87793 8.79314C6.02634 8.80016 6.16677 8.86237 6.27169 8.96757L6.96393 9.66032L8.49036 7.28219C8.54752 7.1922 8.62797 7.11937 8.72318 7.07142C8.81839 7.02347 8.92481 7.00219 9.03113 7.00985C9.24737 7.02379 9.43913 7.15367 9.53178 7.35019L10.4326 9.25521L12.1721 6.19657C12.2505 6.05918 12.3802 5.95847 12.5327 5.91648C12.6852 5.87448 12.8481 5.89463 12.9858 5.97251C13.1233 6.05099 13.224 6.18079 13.266 6.33344C13.3079 6.48609 13.2875 6.64913 13.2094 6.78681L10.9023 10.8433C10.8479 10.9378 10.7688 11.0157 10.6734 11.0687C10.5781 11.1217 10.4702 11.1477 10.3612 11.1441C10.252 11.1402 10.146 11.1063 10.0548 11.046C9.96357 10.9858 9.89073 10.9016 9.84424 10.8027L8.91281 8.83225L7.56743 10.9277C7.51349 11.0118 7.43927 11.0811 7.35159 11.1291C7.26391 11.1772 7.16557 11.2024 7.06559 11.2026Z" fill="white"/>
</svg>
